<?xml version="1.0" encoding="UTF-8"?>
<svg xmlns="http://www.w3.org/2000/svg" viewBox="0 0 340 520" fill="none">
  <defs>
    <marker id="arrow" markerWidth="8" markerHeight="8" refX="6" refY="4" orient="auto">
      <path d="M0 0 L8 4 L0 8 Z" fill="#6B7280"/>
    </marker>
  </defs>
  <rect width="340" height="520" fill="#FAFAFA"/>
  <text x="170" y="32" text-anchor="middle" font-family="Inter, system-ui, sans-serif" font-size="18" font-weight="600" fill="#1F2937">Drillingknoten</text>
  <text x="170" y="52" text-anchor="middle" font-family="Inter, system-ui, sans-serif" font-size="11" fill="#6B7280">Palomar-Knoten &#183; Drillinghaken anbinden</text>
  <circle cx="24" cy="78" r="12" fill="#1F2937"/>
  <text x="24" y="82" text-anchor="middle" font-family="Inter, sans-serif" font-size="12" font-weight="600" fill="#FFF">1</text>
  <text x="44" y="82" font-family="Inter, sans-serif" font-size="11" font-weight="600" fill="#1F2937">Doppelte Schnur bilden</text>
  <rect x="20" y="96" width="140" height="100" rx="8" fill="#FFF" stroke="#E5E7EB"/>
  <path d="M50 186 L50 148" stroke="#2563EB" stroke-width="2.5" stroke-linecap="round"/>
  <path d="M70 186 L70 148" stroke="#2563EB" stroke-width="2.5" stroke-linecap="round"/>
  <path d="M50 148 Q60 130 70 148" stroke="#2563EB" stroke-width="2.5" fill="none"/>
  <path d="M60 130 L60 118" stroke="#2563EB" stroke-width="2.5" stroke-linecap="round"/>
  <text x="78" y="140" font-family="Inter, sans-serif" font-size="8" fill="#059669">Doppelt</text>
  <path d="M170 146 L190 146" stroke="#6B7280" stroke-width="1.5" marker-end="url(#arrow)"/>
  <circle cx="204" cy="78" r="12" fill="#1F2937"/>
  <text x="204" y="82" text-anchor="middle" font-family="Inter, sans-serif" font-size="12" font-weight="600" fill="#FFF">2</text>
  <text x="224" y="82" font-family="Inter, sans-serif" font-size="11" font-weight="600" fill="#1F2937">Durch &#214;se des Drillings</text>
  <rect x="200" y="96" width="120" height="100" rx="8" fill="#FFF" stroke="#E5E7EB"/>
  <path d="M250 186 L250 162" stroke="#2563EB" stroke-width="2.5"/>
  <path d="M260 186 L260 162" stroke="#2563EB" stroke-width="2.5"/>
  <circle cx="240" cy="178" r="5" fill="none" stroke="#374151" stroke-width="2"/>
  <circle cx="255" cy="178" r="5" fill="none" stroke="#374151" stroke-width="2"/>
  <circle cx="270" cy="178" r="5" fill="none" stroke="#374151" stroke-width="2"/>
  <line x1="240" y1="178" x2="270" y2="178" stroke="#374151" stroke-width="1.5"/>
  <ellipse cx="255" cy="158" rx="8" ry="5" fill="none" stroke="#374151" stroke-width="2"/>
  <text x="278" y="160" font-family="Inter, sans-serif" font-size="8" fill="#374151">&#214;se</text>
  <circle cx="24" cy="218" r="12" fill="#1F2937"/>
  <text x="24" y="222" text-anchor="middle" font-family="Inter, sans-serif" font-size="12" font-weight="600" fill="#FFF">3</text>
  <text x="44" y="222" font-family="Inter, sans-serif" font-size="11" font-weight="600" fill="#1F2937">Schlaufe &#252;ber Drilling legen</text>
  <rect x="20" y="236" width="140" height="100" rx="8" fill="#FFF" stroke="#E5E7EB"/>
  <path d="M70 326 L70 290" stroke="#2563EB" stroke-width="2.5"/>
  <path d="M80 326 L80 290" stroke="#2563EB" stroke-width="2.5"/>
  <path d="M50 290 Q75 250 100 290" stroke="#2563EB" stroke-width="2.5" fill="none"/>
  <circle cx="62" cy="302" r="4" fill="none" stroke="#374151" stroke-width="1.5"/>
  <circle cx="75" cy="302" r="4" fill="none" stroke="#374151" stroke-width="1.5"/>
  <circle cx="88" cy="302" r="4" fill="none" stroke="#374151" stroke-width="1.5"/>
  <text x="105" y="275" font-family="Inter, sans-serif" font-size="8" fill="#059669">Schlaufe</text>
  <path d="M170 286 L190 286" stroke="#6B7280" stroke-width="1.5" marker-end="url(#arrow)"/>
  <circle cx="204" cy="218" r="12" fill="#1F2937"/>
  <text x="204" y="222" text-anchor="middle" font-family="Inter, sans-serif" font-size="12" font-weight="600" fill="#FFF">4</text>
  <text x="224" y="222" font-family="Inter, sans-serif" font-size="11" font-weight="600" fill="#1F2937">Enden durch Schlaufe ziehen</text>
  <rect x="200" y="236" width="120" height="100" rx="8" fill="#FFF" stroke="#E5E7EB"/>
  <path d="M240 326 L240 298" stroke="#2563EB" stroke-width="2.5"/>
  <path d="M260 326 L260 298" stroke="#2563EB" stroke-width="2.5"/>
  <path d="M230 298 Q250 270 270 298" stroke="#2563EB" stroke-width="2.5" fill="none"/>
  <path d="M268 280 L278 270" stroke="#EA580C" stroke-width="2" marker-end="url(#arrow)"/>
  <path d="M232 280 L222 270" stroke="#EA580C" stroke-width="2" marker-end="url(#arrow)"/>
  <circle cx="24" cy="358" r="12" fill="#1F2937"/>
  <text x="24" y="362" text-anchor="middle" font-family="Inter, sans-serif" font-size="12" font-weight="600" fill="#FFF">5</text>
  <text x="44" y="362" font-family="Inter, sans-serif" font-size="11" font-weight="600" fill="#1F2937">Festziehen &amp; abschneiden</text>
  <rect x="180" y="358" width="140" height="130" rx="8" fill="#FFF" stroke="#E5E7EB"/>
  <text x="250" y="378" text-anchor="middle" font-family="Inter, sans-serif" font-size="11" font-weight="600" fill="#059669">Fertiger Knoten</text>
  <path d="M250 470 L250 420" stroke="#2563EB" stroke-width="3.5" stroke-linecap="round"/>
  <ellipse cx="250" cy="408" rx="8" ry="10" fill="none" stroke="#2563EB" stroke-width="3"/>
  <circle cx="235" cy="438" r="6" fill="none" stroke="#374151" stroke-width="2"/>
  <circle cx="250" cy="438" r="6" fill="none" stroke="#374151" stroke-width="2"/>
  <circle cx="265" cy="438" r="6" fill="none" stroke="#374151" stroke-width="2"/>
  <line x1="235" y1="438" x2="265" y2="438" stroke="#374151" stroke-width="1.5"/>
  <text x="250" y="468" text-anchor="middle" font-family="Inter, sans-serif" font-size="8" fill="#374151">Drilling</text>
</svg>
