<?xml version="1.0" encoding="UTF-8"?>
<svg xmlns="http://www.w3.org/2000/svg" viewBox="0 0 340 520" fill="none">
  <defs>
    <marker id="arrow" markerWidth="8" markerHeight="8" refX="6" refY="4" orient="auto">
      <path d="M0 0 L8 4 L0 8 Z" fill="#6B7280"/>
    </marker>
  </defs>
  <rect width="340" height="520" fill="#FAFAFA"/>
  <text x="170" y="32" text-anchor="middle" font-family="Inter, system-ui, sans-serif" font-size="18" font-weight="600" fill="#1F2937">Schlaufenknoten</text>
  <text x="170" y="52" text-anchor="middle" font-family="Inter, system-ui, sans-serif" font-size="11" fill="#6B7280">Einfacher &#220;berhand-Schlaufenknoten</text>
  <circle cx="24" cy="78" r="12" fill="#1F2937"/>
  <text x="24" y="82" text-anchor="middle" font-family="Inter, sans-serif" font-size="12" font-weight="600" fill="#FFF">1</text>
  <text x="44" y="82" font-family="Inter, sans-serif" font-size="11" font-weight="600" fill="#1F2937">Schlaufe bilden</text>
  <rect x="20" y="96" width="140" height="100" rx="8" fill="#FFF" stroke="#E5E7EB"/>
  <path d="M40 186 L40 140" stroke="#2563EB" stroke-width="3" stroke-linecap="round"/>
  <path d="M40 140 L120 140" stroke="#2563EB" stroke-width="3" stroke-linecap="round"/>
  <path d="M120 140 Q160 140 160 170 Q160 200 120 200" stroke="#2563EB" stroke-width="3" fill="none" stroke-linecap="round"/>
  <path d="M120 200 L40 200" stroke="#2563EB" stroke-width="3" stroke-linecap="round"/>
  <path d="M40 200 L40 186" stroke="#2563EB" stroke-width="3" stroke-linecap="round"/>
  <text x="130" y="175" font-family="Inter, sans-serif" font-size="9" fill="#059669">Schlaufe</text>
  <path d="M170 146 L190 146" stroke="#6B7280" stroke-width="1.5" marker-end="url(#arrow)"/>
  <circle cx="204" cy="78" r="12" fill="#1F2937"/>
  <text x="204" y="82" text-anchor="middle" font-family="Inter, sans-serif" font-size="12" font-weight="600" fill="#FFF">2</text>
  <text x="224" y="82" font-family="Inter, sans-serif" font-size="11" font-weight="600" fill="#1F2937">Ende hinter stehend legen</text>
  <rect x="200" y="96" width="120" height="100" rx="8" fill="#FFF" stroke="#E5E7EB"/>
  <path d="M220 186 L220 148" stroke="#2563EB" stroke-width="3" stroke-linecap="round"/>
  <path d="M220 148 L280 148" stroke="#2563EB" stroke-width="3" stroke-linecap="round"/>
  <path d="M280 148 Q310 148 310 170 Q310 192 280 192" stroke="#2563EB" stroke-width="3" fill="none"/>
  <path d="M280 192 L220 192" stroke="#2563EB" stroke-width="3"/>
  <path d="M260 148 L290 168" stroke="#EA580C" stroke-width="2.5" stroke-linecap="round"/>
  <text x="248" y="165" font-family="Inter, sans-serif" font-size="8" fill="#EA580C">Ende</text>
  <text x="248" y="178" font-family="Inter, sans-serif" font-size="8" fill="#2563EB">stehend</text>
  <circle cx="24" cy="218" r="12" fill="#1F2937"/>
  <text x="24" y="222" text-anchor="middle" font-family="Inter, sans-serif" font-size="12" font-weight="600" fill="#FFF">3</text>
  <text x="44" y="222" font-family="Inter, sans-serif" font-size="11" font-weight="600" fill="#1F2937">Ende durch Schlaufe f&#252;hren</text>
  <rect x="20" y="236" width="140" height="100" rx="8" fill="#FFF" stroke="#E5E7EB"/>
  <path d="M40 326 L40 268" stroke="#2563EB" stroke-width="3" stroke-linecap="round"/>
  <path d="M40 268 L100 268" stroke="#2563EB" stroke-width="3"/>
  <path d="M100 268 Q130 268 130 290 Q130 312 100 312" stroke="#2563EB" stroke-width="3" fill="none"/>
  <path d="M100 312 L40 312" stroke="#2563EB" stroke-width="3"/>
  <path d="M80 268 L110 290" stroke="#EA580C" stroke-width="2.5" stroke-linecap="round"/>
  <path d="M110 290 L100 302" stroke="#EA580C" stroke-width="2.5" marker-end="url(#arrow)"/>
  <circle cx="115" cy="285" r="5" fill="none" stroke="#EA580C" stroke-width="1.5" stroke-dasharray="2 2"/>
  <path d="M170 286 L190 286" stroke="#6B7280" stroke-width="1.5" marker-end="url(#arrow)"/>
  <circle cx="204" cy="218" r="12" fill="#1F2937"/>
  <text x="204" y="222" text-anchor="middle" font-family="Inter, sans-serif" font-size="12" font-weight="600" fill="#FFF">4</text>
  <text x="224" y="222" font-family="Inter, sans-serif" font-size="11" font-weight="600" fill="#1F2937">Gleichm&#228;&#223;ig festziehen</text>
  <rect x="200" y="236" width="120" height="100" rx="8" fill="#FFF" stroke="#E5E7EB"/>
  <path d="M220 326 L220 290" stroke="#2563EB" stroke-width="3" stroke-linecap="round"/>
  <path d="M220 290 L270 290" stroke="#2563EB" stroke-width="3"/>
  <path d="M270 290 L270 310" stroke="#2563EB" stroke-width="3"/>
  <path d="M270 310 L220 310" stroke="#2563EB" stroke-width="3"/>
  <path d="M220 310 L220 326" stroke="#2563EB" stroke-width="3"/>
  <path d="M245 278 L245 268" stroke="#6B7280" stroke-width="1.5" marker-end="url(#arrow)"/>
  <path d="M255 278 L255 268" stroke="#6B7280" stroke-width="1.5" marker-end="url(#arrow)"/>
  <text x="248" y="265" text-anchor="middle" font-family="Inter, sans-serif" font-size="8" fill="#6B7280">ziehen</text>
  <rect x="20" y="358" width="300" height="140" rx="8" fill="#FFF" stroke="#E5E7EB"/>
  <text x="170" y="382" text-anchor="middle" font-family="Inter, sans-serif" font-size="11" font-weight="600" fill="#059669">Fertiger Schlaufenknoten</text>
  <path d="M60 470 L60 410" stroke="#2563EB" stroke-width="3.5" stroke-linecap="round"/>
  <path d="M60 410 L200 410" stroke="#2563EB" stroke-width="3.5" stroke-linecap="round"/>
  <path d="M200 410 L200 470" stroke="#2563EB" stroke-width="3.5" stroke-linecap="round"/>
  <ellipse cx="130" cy="410" rx="70" ry="28" fill="none" stroke="#2563EB" stroke-width="3"/>
  <path d="M130 382 L130 370" stroke="#2563EB" stroke-width="3.5" stroke-linecap="round"/>
  <text x="130" y="365" text-anchor="middle" font-family="Inter, sans-serif" font-size="9" fill="#059669">Schlaufe</text>
  <text x="250" y="445" font-family="Inter, sans-serif" font-size="9" fill="#2563EB">stehender Teil</text>
</svg>
