<?xml version="1.0" encoding="UTF-8"?>
<svg xmlns="http://www.w3.org/2000/svg" viewBox="0 0 340 520" fill="none">
  <defs>
    <marker id="arrow" markerWidth="8" markerHeight="8" refX="6" refY="4" orient="auto">
      <path d="M0 0 L8 4 L0 8 Z" fill="#6B7280"/>
    </marker>
  </defs>
  <rect width="340" height="520" fill="#FAFAFA"/>
  <text x="170" y="32" text-anchor="middle" font-family="Inter, system-ui, sans-serif" font-size="18" font-weight="600" fill="#1F2937">Verbindungsknoten</text>
  <text x="170" y="52" text-anchor="middle" font-family="Inter, system-ui, sans-serif" font-size="11" fill="#6B7280">Doppel-Uni &#183; Zwei Angelschn&#252;re verbinden</text>
  <line x1="80" y1="68" x2="110" y2="68" stroke="#2563EB" stroke-width="3"/>
  <text x="118" y="72" font-family="Inter, sans-serif" font-size="9" fill="#2563EB">Schnur A</text>
  <line x1="180" y1="68" x2="210" y2="68" stroke="#EA580C" stroke-width="3"/>
  <text x="218" y="72" font-family="Inter, sans-serif" font-size="9" fill="#EA580C">Schnur B</text>
  <circle cx="24" cy="98" r="12" fill="#1F2937"/>
  <text x="24" y="102" text-anchor="middle" font-family="Inter, sans-serif" font-size="12" font-weight="600" fill="#FFF">1</text>
  <text x="44" y="102" font-family="Inter, sans-serif" font-size="11" font-weight="600" fill="#1F2937">Schn&#252;re parallel legen</text>
  <rect x="20" y="116" width="140" height="90" rx="8" fill="#FFF" stroke="#E5E7EB"/>
  <path d="M30 196 L30 140" stroke="#2563EB" stroke-width="3" stroke-linecap="round"/>
  <path d="M30 140 L130 140" stroke="#2563EB" stroke-width="3"/>
  <path d="M130 140 L130 196" stroke="#2563EB" stroke-width="3" stroke-linecap="round"/>
  <path d="M150 196 L150 152" stroke="#EA580C" stroke-width="3" stroke-linecap="round"/>
  <path d="M150 152 L50 152" stroke="#EA580C" stroke-width="3"/>
  <path d="M50 152 L50 196" stroke="#EA580C" stroke-width="3" stroke-linecap="round"/>
  <text x="80" y="175" text-anchor="middle" font-family="Inter, sans-serif" font-size="8" fill="#6B7280">15 cm &#220;berlappung</text>
  <path d="M170 161 L190 161" stroke="#6B7280" stroke-width="1.5" marker-end="url(#arrow)"/>
  <circle cx="204" cy="98" r="12" fill="#1F2937"/>
  <text x="204" y="102" text-anchor="middle" font-family="Inter, sans-serif" font-size="12" font-weight="600" fill="#FFF">2</text>
  <text x="224" y="102" font-family="Inter, sans-serif" font-size="11" font-weight="600" fill="#1F2937">A 4&#215; um B wickeln</text>
  <rect x="200" y="116" width="120" height="90" rx="8" fill="#FFF" stroke="#E5E7EB"/>
  <path d="M210 196 L210 148" stroke="#2563EB" stroke-width="2.5"/>
  <path d="M210 148 L290 148" stroke="#2563EB" stroke-width="2.5"/>
  <path d="M290 148 L290 196" stroke="#2563EB" stroke-width="2.5"/>
  <path d="M270 196 L270 152" stroke="#EA580C" stroke-width="3"/>
  <path d="M270 152 L230 152" stroke="#EA580C" stroke-width="3"/>
  <ellipse cx="250" cy="152" rx="18" ry="6" fill="none" stroke="#2563EB" stroke-width="2"/>
  <path d="M268 168 L278 178" stroke="#2563EB" stroke-width="2" marker-end="url(#arrow)"/>
  <circle cx="24" cy="228" r="12" fill="#1F2937"/>
  <text x="24" y="232" text-anchor="middle" font-family="Inter, sans-serif" font-size="12" font-weight="600" fill="#FFF">3</text>
  <text x="44" y="232" font-family="Inter, sans-serif" font-size="11" font-weight="600" fill="#1F2937">B 4&#215; um A wickeln</text>
  <rect x="20" y="246" width="140" height="90" rx="8" fill="#FFF" stroke="#E5E7EB"/>
  <path d="M40 326 L40 268" stroke="#2563EB" stroke-width="3"/>
  <path d="M40 268 L120 268" stroke="#2563EB" stroke-width="3"/>
  <path d="M120 268 L120 326" stroke="#2563EB" stroke-width="3"/>
  <path d="M100 326 L100 272" stroke="#EA580C" stroke-width="2.5"/>
  <path d="M100 272 L60 272" stroke="#EA580C" stroke-width="2.5"/>
  <ellipse cx="80" cy="272" rx="18" ry="6" fill="none" stroke="#EA580C" stroke-width="2"/>
  <path d="M92 288 L102 298" stroke="#EA580C" stroke-width="2" marker-end="url(#arrow)"/>
  <path d="M170 291 L190 291" stroke="#6B7280" stroke-width="1.5" marker-end="url(#arrow)"/>
  <circle cx="204" cy="228" r="12" fill="#1F2937"/>
  <text x="204" y="232" text-anchor="middle" font-family="Inter, sans-serif" font-size="12" font-weight="600" fill="#FFF">4</text>
  <text x="224" y="232" font-family="Inter, sans-serif" font-size="11" font-weight="600" fill="#1F2937">Enden durch Schlaufen ziehen</text>
  <rect x="200" y="246" width="120" height="90" rx="8" fill="#FFF" stroke="#E5E7EB"/>
  <path d="M220 326 L220 278" stroke="#2563EB" stroke-width="2.5"/>
  <path d="M220 278 L290 278" stroke="#2563EB" stroke-width="2.5"/>
  <path d="M260 326 L260 282" stroke="#EA580C" stroke-width="2.5"/>
  <path d="M260 282 L230 282" stroke="#EA580C" stroke-width="2.5"/>
  <circle cx="245" cy="278" r="6" fill="none" stroke="#2563EB" stroke-width="1.5"/>
  <circle cx="245" cy="282" r="6" fill="none" stroke="#EA580C" stroke-width="1.5"/>
  <rect x="20" y="358" width="300" height="140" rx="8" fill="#FFF" stroke="#E5E7EB"/>
  <text x="170" y="382" text-anchor="middle" font-family="Inter, sans-serif" font-size="11" font-weight="600" fill="#059669">Fertige Verbindung</text>
  <path d="M50 470 L50 420" stroke="#2563EB" stroke-width="3.5" stroke-linecap="round"/>
  <path d="M50 420 L170 420" stroke="#2563EB" stroke-width="3.5"/>
  <path d="M170 420 L170 470" stroke="#2563EB" stroke-width="3.5" stroke-linecap="round"/>
  <path d="M290 470 L290 420" stroke="#EA580C" stroke-width="3.5" stroke-linecap="round"/>
  <path d="M290 420 L170 420" stroke="#EA580C" stroke-width="3.5"/>
  <path d="M170 420 L170 470" stroke="#EA580C" stroke-width="3.5" stroke-linecap="round"/>
  <ellipse cx="170" cy="420" rx="22" ry="14" fill="none" stroke="#1F2937" stroke-width="2"/>
  <text x="170" y="425" text-anchor="middle" font-family="Inter, sans-serif" font-size="8" fill="#1F2937">Uni-Knoten</text>
</svg>
