<?xml version="1.0" encoding="UTF-8"?>
<svg xmlns="http://www.w3.org/2000/svg" viewBox="0 0 340 520" fill="none">
  <defs>
    <marker id="arrow" markerWidth="8" markerHeight="8" refX="6" refY="4" orient="auto">
      <path d="M0 0 L8 4 L0 8 Z" fill="#6B7280"/>
    </marker>
  </defs>
  <rect width="340" height="520" fill="#FAFAFA"/>
  <text x="170" y="32" text-anchor="middle" font-family="Inter, system-ui, sans-serif" font-size="18" font-weight="600" fill="#1F2937">Vorfachknoten</text>
  <text x="170" y="52" text-anchor="middle" font-family="Inter, system-ui, sans-serif" font-size="11" fill="#6B7280">Albright-Knoten &#183; Hauptschnur &amp; Vorfach</text>
  <line x1="70" y1="68" x2="100" y2="68" stroke="#2563EB" stroke-width="3"/>
  <text x="108" y="72" font-family="Inter, sans-serif" font-size="9" fill="#2563EB">Hauptschnur</text>
  <line x1="190" y1="68" x2="220" y2="68" stroke="#EA580C" stroke-width="2"/>
  <text x="228" y="72" font-family="Inter, sans-serif" font-size="9" fill="#EA580C">Vorfach</text>
  <circle cx="24" cy="98" r="12" fill="#1F2937"/>
  <text x="24" y="102" text-anchor="middle" font-family="Inter, sans-serif" font-size="12" font-weight="600" fill="#FFF">1</text>
  <text x="44" y="102" font-family="Inter, sans-serif" font-size="11" font-weight="600" fill="#1F2937">Vorfachschlaufe bilden</text>
  <rect x="20" y="116" width="140" height="90" rx="8" fill="#FFF" stroke="#E5E7EB"/>
  <path d="M40 196 L40 148" stroke="#2563EB" stroke-width="3" stroke-linecap="round"/>
  <path d="M40 148 L120 148" stroke="#2563EB" stroke-width="3"/>
  <path d="M80 196 L80 160" stroke="#EA580C" stroke-width="2" stroke-linecap="round"/>
  <path d="M80 160 Q110 160 110 175 Q110 190 80 190" stroke="#EA580C" stroke-width="2" fill="none"/>
  <text x="115" y="178" font-family="Inter, sans-serif" font-size="8" fill="#EA580C">Schlaufe</text>
  <path d="M170 161 L190 161" stroke="#6B7280" stroke-width="1.5" marker-end="url(#arrow)"/>
  <circle cx="204" cy="98" r="12" fill="#1F2937"/>
  <text x="204" y="102" text-anchor="middle" font-family="Inter, sans-serif" font-size="12" font-weight="600" fill="#FFF">2</text>
  <text x="224" y="102" font-family="Inter, sans-serif" font-size="11" font-weight="600" fill="#1F2937">Hauptschnur durch Schlaufe</text>
  <rect x="200" y="116" width="120" height="90" rx="8" fill="#FFF" stroke="#E5E7EB"/>
  <path d="M220 196 L220 148" stroke="#2563EB" stroke-width="3"/>
  <path d="M220 148 L290 148" stroke="#2563EB" stroke-width="3"/>
  <path d="M260 196 L260 162" stroke="#EA580C" stroke-width="2"/>
  <path d="M260 162 Q280 162 280 172 Q280 182 260 182" stroke="#EA580C" stroke-width="2" fill="none"/>
  <path d="M275 148 L285 158" stroke="#2563EB" stroke-width="2.5" marker-end="url(#arrow)"/>
  <circle cx="24" cy="228" r="12" fill="#1F2937"/>
  <text x="24" y="232" text-anchor="middle" font-family="Inter, sans-serif" font-size="12" font-weight="600" fill="#FFF">3</text>
  <text x="44" y="232" font-family="Inter, sans-serif" font-size="11" font-weight="600" fill="#1F2937">Vorfach 10&#215; um Schnur wickeln</text>
  <rect x="20" y="246" width="140" height="90" rx="8" fill="#FFF" stroke="#E5E7EB"/>
  <path d="M40 326 L40 278" stroke="#2563EB" stroke-width="3"/>
  <path d="M80 326 L80 282" stroke="#EA580C" stroke-width="2"/>
  <ellipse cx="65" cy="282" rx="14" ry="5" fill="none" stroke="#EA580C" stroke-width="1.5"/>
  <text x="90" y="295" font-family="Inter, sans-serif" font-size="8" fill="#EA580C">10&#215; wickeln</text>
  <path d="M170 291 L190 291" stroke="#6B7280" stroke-width="1.5" marker-end="url(#arrow)"/>
  <circle cx="204" cy="228" r="12" fill="#1F2937"/>
  <text x="204" y="232" text-anchor="middle" font-family="Inter, sans-serif" font-size="12" font-weight="600" fill="#FFF">4</text>
  <text x="224" y="232" font-family="Inter, sans-serif" font-size="11" font-weight="600" fill="#1F2937">Vorfachende zur&#252;ckf&#252;hren</text>
  <rect x="200" y="246" width="120" height="90" rx="8" fill="#FFF" stroke="#E5E7EB"/>
  <path d="M260 326 L260 282" stroke="#EA580C" stroke-width="2"/>
  <ellipse cx="245" cy="282" rx="14" ry="5" fill="none" stroke="#EA580C" stroke-width="1.5"/>
  <path d="M248 278 L258 288" stroke="#EA580C" stroke-width="2" marker-end="url(#arrow)"/>
  <circle cx="24" cy="358" r="12" fill="#1F2937"/>
  <text x="24" y="362" text-anchor="middle" font-family="Inter, sans-serif" font-size="12" font-weight="600" fill="#FFF">5</text>
  <text x="44" y="362" font-family="Inter, sans-serif" font-size="11" font-weight="600" fill="#1F2937">Beide Enden festziehen</text>
  <rect x="180" y="358" width="140" height="130" rx="8" fill="#FFF" stroke="#E5E7EB"/>
  <text x="250" y="378" text-anchor="middle" font-family="Inter, sans-serif" font-size="11" font-weight="600" fill="#059669">Fertiger Knoten</text>
  <path d="M250 470 L250 420" stroke="#2563EB" stroke-width="3.5" stroke-linecap="round"/>
  <path d="M190 470 L190 420" stroke="#EA580C" stroke-width="2.5" stroke-linecap="round"/>
  <ellipse cx="210" cy="420" rx="14" ry="10" fill="none" stroke="#1F2937" stroke-width="2"/>
  <text x="210" y="424" text-anchor="middle" font-family="Inter, sans-serif" font-size="7" fill="#1F2937">Albright</text>
</svg>
